<?xml version="1.0" standalone="no"?>
<!DOCTYPE svg PUBLIC "-//W3C//DTD SVG 20010904//EN"
 "http://www.w3.org/TR/2001/REC-SVG-20010904/DTD/svg10.dtd">
<svg version="1.0" xmlns="http://www.w3.org/2000/svg"
 width="500.000000pt" height="500.000000pt" viewBox="0 0 500.000000 500.000000"
 preserveAspectRatio="xMidYMid meet">

<g transform="translate(0.000000,500.000000) scale(0.100000,-0.100000)"
fill="#000000" stroke="none">
<path d="M1750 3120 c0 -6 20 -20 45 -32 30 -15 48 -31 55 -51 5 -17 10 -99
10 -183 0 -147 1 -154 20 -154 18 0 20 8 22 123 l3 122 44 -119 c25 -65 50
-120 56 -122 6 -3 74 -3 152 -2 l141 3 -81 213 -81 212 -193 0 c-124 0 -193
-4 -193 -10z"/>
<path d="M2779 2923 c-41 -113 -75 -210 -77 -215 -2 -4 10 -8 26 -8 29 0 31 3
75 128 l46 127 0 -127 1 -128 150 0 150 0 0 169 c0 187 5 204 70 231 16 7 30
16 30 21 0 5 -89 9 -198 9 l-198 0 -75 -207z"/>
<path d="M2582 2539 c-46 -17 -31 -109 17 -109 26 0 51 10 51 21 0 5 -8 4 -19
-2 -36 -23 -76 16 -60 59 9 23 52 31 64 12 3 -5 11 -10 17 -10 16 0 -9 27 -30
32 -10 3 -28 1 -40 -3z"/>
<path d="M2302 2483 l1 -58 6 50 6 50 22 -28 22 -28 18 28 18 27 6 -49 6 -50
1 58 c2 62 -7 71 -32 31 l-17 -25 -20 25 c-31 39 -39 32 -37 -31z"/>
<path d="M1860 2114 c0 -217 -7 -243 -71 -268 -68 -28 -47 -36 91 -36 138 0
159 8 90 36 -22 9 -45 25 -50 35 -6 10 -10 108 -10 218 l0 201 -25 0 -25 0 0
-186z"/>
<path d="M2178 2227 c15 -40 56 -150 92 -245 l65 -172 50 0 51 0 83 233 c46
127 86 238 89 245 3 8 -6 12 -25 12 -26 0 -31 -5 -42 -42 -7 -24 -19 -53 -25
-66 -12 -22 -14 -20 -37 40 l-25 63 -152 3 -152 3 28 -74z"/>
<path d="M2850 2102 c0 -220 -3 -232 -66 -258 -19 -8 -34 -19 -34 -24 0 -6 92
-10 250 -10 158 0 250 4 250 10 0 5 -15 16 -34 24 -63 26 -66 38 -66 258 l0
198 -150 0 -150 0 0 -198z"/>
</g>
</svg>
